<svg xmlns="http://www.w3.org/2000/svg" xmlns:xlink="http://www.w3.org/1999/xlink" id="Warstwa_1" x="0" y="0" version="1.1" viewBox="0 0 1500 390.9" style="enable-background:new 0 0 1500 390.9" xml:space="preserve"><style type="text/css">.st0{fill:#6f29db}</style><g><g><path d="M442.4,259.7V128.5h29.4v52.3h24.9l30.7-52.3h33.3l-39.6,65l39,66.2h-33.7l-29.4-50.5h-25.3v50.5H442.4z"/><path d="M575.2,194.1c0-40.9,23.9-67.6,63.1-67.6c39.2,0,62.9,26.6,62.9,67.6s-23.7,67.6-62.9,67.6 C599.1,261.7,575.2,235,575.2,194.1z M669.8,194.1c0-30.7-9-39.2-31.5-39.2c-22.5,0-31.7,8.4-31.7,39.2s9.2,39.2,31.7,39.2 C660.8,233.3,669.8,224.8,669.8,194.1z"/><path d="M733.1,259.7V128.5h29.4v52.1h57.2v-52.1H849v131.2h-29.4v-52.9h-57.2v52.9H733.1z"/><path d="M885.9,259.7V128.5h100.1v26.4h-70.7v25.7H983v26.2h-67.8v26.4h70.7v26.4H885.9z"/><path d="M1014.3,259.7v-24.3l67.4-78.5v-2h-63.7v-26.4h103.6v24.3l-68,78.5v2h70.7v26.4H1014.3z"/><path d="M1142.8,209.4v-3.9h31.1v5.3c0,17,2.5,22.5,21,22.5c18.2,0,20.8-5.5,20.8-22.5v-82.3h31.3v79.7 c0,33.5-15.1,53.5-51.1,53.5C1157.7,261.7,1142.8,242.1,1142.8,209.4z"/><path d="M1262.5,259.7l48.4-131.2h42.7l48.4,131.2H1370l-10.6-29.2h-55.6l-10.8,29.2H1262.5z M1313.4,204.3h36.4l-7.4-20.4 l-9.6-29.6h-2l-10,29.6L1313.4,204.3z"/></g><g><polyline points="293.6 242.8 323.2 194.2 322.7 194 323.3 194 267.1 96.6 154.5 96.6 98.3 194 154.5 291.5 257.7 291.5 257.7 291.4 257.8 291.4 245.6 270.5 235.6 270.5 166.7 270.5 122.6 194 166.7 117.6 254.9 117.6 299 194 299.2 194 270.5 242.8 270.5 242.9 270.5 242.9 300.1 291.6 323.2 291.6 293.6 242.8"/><circle cx="341" cy="242.8" r="17.2" class="st0"/></g></g></svg>