<?xml version="1.0" encoding="UTF-8" standalone="no"?>
<!DOCTYPE svg PUBLIC "-//W3C//DTD SVG 1.1//EN" "http://www.w3.org/Graphics/SVG/1.1/DTD/svg11.dtd">
<svg width="100%" height="100%" viewBox="0 0 1920 1080" version="1.1" xmlns="http://www.w3.org/2000/svg" xmlns:xlink="http://www.w3.org/1999/xlink" xml:space="preserve" xmlns:serif="http://www.serif.com/" style="fill-rule:evenodd;clip-rule:evenodd;stroke-linejoin:round;stroke-miterlimit:2;">
    <g transform="matrix(1,0,0,1,1506.88,905.095)">
        <path d="M0,-11.683C-0.542,-10.61 -1.256,-9.672 -2.136,-8.875C-3.017,-8.076 -4.069,-7.452 -5.289,-7.002C-6.515,-6.553 -7.806,-6.328 -9.168,-6.328C-10.59,-6.328 -11.916,-6.553 -13.136,-7.002C-14.361,-7.452 -15.408,-8.076 -16.288,-8.875C-17.175,-9.672 -17.871,-10.61 -18.383,-11.683C-18.895,-12.757 -19.149,-13.916 -19.149,-15.165C-19.149,-16.364 -18.876,-17.487 -18.341,-18.535C-17.8,-19.585 -17.073,-20.494 -16.163,-21.269C-15.253,-22.043 -14.2,-22.667 -13.011,-23.142C-11.814,-23.615 -10.536,-23.853 -9.168,-23.853C-7.865,-23.853 -6.598,-23.628 -5.372,-23.179C-4.152,-22.73 -3.088,-22.105 -2.178,-21.306C-1.268,-20.507 -0.542,-19.585 0,-18.535C0.535,-17.487 0.809,-16.338 0.809,-15.089C0.809,-13.893 0.535,-12.757 0,-11.683M0.041,-30.143C-3.486,-33.538 -7.835,-35.237 -13.011,-35.237C-16.193,-35.237 -19.132,-34.701 -21.833,-33.627C-24.533,-32.551 -26.865,-31.08 -28.829,-29.208C-30.792,-27.335 -32.339,-25.138 -33.475,-22.618C-34.611,-20.094 -35.183,-17.362 -35.183,-14.415C-35.183,-11.521 -34.659,-8.886 -33.605,-6.514C-32.553,-4.142 -31.077,-2.107 -29.168,-0.412C-27.265,1.286 -25.004,2.61 -22.386,3.559C-19.774,4.507 -16.901,4.982 -13.778,4.982C-12.356,4.982 -11.048,4.893 -9.852,4.718C-8.656,4.544 -7.52,4.256 -6.443,3.859C-5.36,3.46 -4.296,2.947 -3.242,2.323C-2.189,1.699 -1.095,0.913 0.041,-0.036L0.041,3.634C0.041,6.479 -0.827,8.699 -2.559,10.298C-4.296,11.897 -6.782,12.696 -10.024,12.696C-13.832,12.696 -16.276,11.424 -17.359,8.877L-34.754,8.877C-34.302,10.972 -33.392,12.907 -32.023,14.681C-30.661,16.452 -28.912,18.001 -26.782,19.323C-24.646,20.647 -22.16,21.684 -19.316,22.431C-16.479,23.181 -13.35,23.554 -9.935,23.554C-6.925,23.554 -4.123,23.256 -1.535,22.656C1.047,22.058 3.367,21.235 5.413,20.185C7.46,19.137 9.209,17.902 10.66,16.478C12.105,15.054 13.177,13.519 13.854,11.873C14.366,10.572 14.765,9.075 15.051,7.378C15.336,5.68 15.479,3.76 15.479,1.61L15.479,-34.189L0.041,-34.189L0.041,-30.143Z" style="fill:rgb(217,168,181);fill-rule:nonzero;"/>
    </g>
    <g transform="matrix(1,0,0,1,1564.23,909.328)">
        <path d="M0,-39.245C-3.183,-39.245 -5.967,-38.634 -8.353,-37.411C-10.744,-36.186 -12.761,-34.426 -14.409,-32.129L-14.409,-38.422L-29.846,-38.422L-29.846,0L-14.409,0L-14.409,-16.477C-14.409,-20.072 -13.517,-22.807 -11.726,-24.677C-9.936,-26.55 -7.246,-27.488 -3.665,-27.488C-1.279,-27.488 0.939,-27.038 2.986,-26.14L2.986,-39.096C2.361,-39.195 1.808,-39.245 1.326,-39.245L0,-39.245Z" style="fill:rgb(217,168,181);fill-rule:nonzero;"/>
    </g>
    <g transform="matrix(1,0,0,1,1605.25,889.108)">
        <path d="M0,3.442C0,8.189 -2.611,10.558 -7.841,10.558C-13.076,10.558 -15.688,8.189 -15.688,3.442L-15.688,-18.202L-31.125,-18.202L-31.125,6.065C-31.125,11.257 -29.18,15.152 -25.283,17.749C-21.393,20.342 -15.574,21.644 -7.841,21.644C-0.113,21.644 5.705,20.342 9.596,17.749C13.492,15.152 15.438,11.257 15.438,6.065L15.438,-18.202L0,-18.202L0,3.442Z" style="fill:rgb(217,168,181);fill-rule:nonzero;"/>
    </g>
    <g transform="matrix(1,0,0,1,1665.25,904.686)">
        <path d="M0,-11.161C-0.542,-10.111 -1.25,-9.186 -2.13,-8.39C-3.017,-7.59 -4.052,-6.966 -5.247,-6.517C-6.437,-6.067 -7.716,-5.843 -9.084,-5.843C-10.446,-5.843 -11.743,-6.08 -12.963,-6.553C-14.188,-7.029 -15.254,-7.653 -16.164,-8.426C-17.074,-9.2 -17.781,-10.111 -18.293,-11.161C-18.805,-12.208 -19.061,-13.332 -19.061,-14.531C-19.061,-15.73 -18.793,-16.863 -18.252,-17.939C-17.71,-19.011 -17.002,-19.948 -16.116,-20.747C-15.235,-21.544 -14.2,-22.171 -13.005,-22.62C-11.809,-23.07 -10.53,-23.294 -9.168,-23.294C-7.746,-23.294 -6.425,-23.057 -5.2,-22.581C-3.98,-22.106 -2.915,-21.471 -2.005,-20.672C-1.095,-19.872 -0.399,-18.937 0.083,-17.864C0.564,-16.79 0.809,-15.654 0.809,-14.455C0.809,-13.306 0.541,-12.208 0,-11.161M10.618,-28.986C8.626,-30.833 6.281,-32.293 3.581,-33.367C0.88,-34.44 -2.035,-34.976 -5.158,-34.976C-10.846,-34.976 -15.337,-33.155 -18.633,-29.509L-18.633,-33.78L-34.07,-33.78L-34.07,23.815L-18.633,23.815L-18.633,0.897C-14.998,4.193 -10.446,5.841 -4.991,5.841C-1.862,5.841 1.035,5.316 3.712,4.269C6.383,3.218 8.697,1.772 10.66,-0.075C12.623,-1.922 14.158,-4.069 15.265,-6.517C16.377,-8.962 16.931,-11.61 16.931,-14.455C16.931,-17.302 16.377,-19.972 15.265,-22.469C14.158,-24.966 12.605,-27.137 10.618,-28.986" style="fill:rgb(217,168,181);fill-rule:nonzero;"/>
    </g>
    <g transform="matrix(1,0,0,1,1724.43,886.712)">
        <path d="M0,6.813C-0.542,7.863 -1.256,8.788 -2.136,9.584C-3.017,10.384 -4.069,11.008 -5.289,11.457C-6.515,11.907 -7.805,12.131 -9.167,12.131C-10.589,12.131 -11.916,11.907 -13.136,11.457C-14.361,11.008 -15.408,10.384 -16.288,9.584C-17.175,8.788 -17.871,7.85 -18.383,6.776C-18.894,5.703 -19.149,4.543 -19.149,3.294C-19.149,2.095 -18.894,0.985 -18.383,-0.039C-17.871,-1.062 -17.175,-1.974 -16.288,-2.773C-15.408,-3.57 -14.361,-4.197 -13.136,-4.646C-11.916,-5.096 -10.589,-5.32 -9.167,-5.32C-7.805,-5.32 -6.515,-5.096 -5.289,-4.646C-4.069,-4.197 -3.017,-3.57 -2.136,-2.773C-1.256,-1.974 -0.542,-1.037 0,0.035C0.535,1.111 0.809,2.244 0.809,3.443C0.809,4.642 0.535,5.766 0,6.813M0.297,-11.984C-3.284,-15.33 -7.805,-17.002 -13.267,-17.002C-16.503,-17.002 -19.459,-16.466 -22.13,-15.393C-24.808,-14.319 -27.109,-12.859 -29.043,-11.012C-30.977,-9.163 -32.481,-7.005 -33.564,-4.534C-34.641,-2.061 -35.182,0.549 -35.182,3.294C-35.182,6.241 -34.629,8.96 -33.517,11.457C-32.41,13.955 -30.863,16.125 -28.87,17.972C-26.884,19.821 -24.552,21.255 -21.874,22.279C-19.203,23.303 -16.276,23.815 -13.094,23.815C-7.466,23.815 -3.004,21.992 0.297,18.348L0.297,22.616L15.818,22.616L15.818,-15.806L0.297,-15.806L0.297,-11.984Z" style="fill:rgb(217,168,181);fill-rule:nonzero;"/>
    </g>
    <g transform="matrix(1,0,0,1,1402.88,299.216)">
        <path d="M0,-52.194C-132.944,0.787 -249.624,47.21 -366.226,-18.8L-366.226,65.177C-325.414,81.089 -284.719,87.611 -244.433,87.611C-147.536,87.611 -53.044,49.948 34.713,14.973C144.296,-28.708 241.868,-67.545 337.375,-44.075L337.375,-119.825C219.836,-139.805 104.67,-93.917 0,-52.194" style="fill:rgb(217,168,181);fill-rule:nonzero;"/>
    </g>
    <g transform="matrix(1,0,0,1,1158.44,681.816)">
        <path d="M0,227.557C96.896,227.557 191.389,189.897 279.146,154.922C387.964,111.541 485.891,72.595 581.808,96.08L581.808,19.943C464.624,0 349.689,45.798 244.433,87.756C111.488,140.742 -5.191,187.154 -121.793,121.149L-121.793,205.124C-80.981,221.036 -40.286,227.557 0,227.557" style="fill:rgb(217,168,181);fill-rule:nonzero;"/>
    </g>
    <g transform="matrix(1,0,0,1,1336.75,522.531)">
        <path d="M0,87.538C2.903,74.517 5.801,61.487 8.692,48.447C14.182,22.853 17.805,-3.067 19.55,-29.284C22.132,-8.297 26.203,13.083 31.704,34.823C34.968,47.087 38.208,59.345 41.471,71.596C27.638,77.047 13.827,82.408 0,87.538M-9.102,-85.647C-32.114,9.456 -55.127,103.838 -78.145,196.857C-58.6,191.526 -39.062,185.211 -19.522,178.307C-16.049,162.527 -12.575,146.728 -9.102,130.913C10.642,123.735 30.408,116.024 50.152,108.189C53.853,121.278 57.542,134.362 61.231,147.445C81.912,139.204 102.619,130.908 123.294,123.026C99.705,45.271 76.117,-31.946 52.54,-109.319C31.987,-101.159 11.445,-93.116 -9.102,-85.647" style="fill:rgb(217,168,181);fill-rule:nonzero;"/>
    </g>
    <g transform="matrix(1,0,0,1,1483.01,616.412)">
        <path d="M0,-240.383L0,19.835C40.014,5.055 80.028,-7.738 120.048,-15.168L120.048,-63.4C99.567,-59.599 79.098,-54.392 58.611,-48.234L58.611,-260.218C39.072,-254.342 19.528,-247.599 0,-240.383" style="fill:rgb(217,168,181);fill-rule:nonzero;"/>
    </g>
    <g transform="matrix(1,0,0,1,1678.82,601.501)">
        <path d="M0,-267.281C-19.534,-267.616 -39.078,-266.165 -58.611,-263.32L-58.611,-3.102C-18.598,-8.929 21.417,-8.909 61.437,0.335L61.437,-47.898C40.955,-52.629 20.47,-54.944 0,-55.296L0,-267.281Z" style="fill:rgb(217,168,181);fill-rule:nonzero;"/>
    </g>
    <g transform="matrix(1,0,0,1,539.244,266.03)">
        <path d="M0,-39.532C-137.93,6.943 -261.374,48.452 -383.15,16.345L-383.15,101.223C-353.318,106.982 -323.581,109.582 -294.02,109.582C-180.354,109.582 -69.403,72.198 33.648,37.479C195.278,-16.984 348.398,-68.445 497.408,14.386L497.408,-79.469C325.486,-149.114 153.68,-91.312 0,-39.532" style="fill:rgb(217,168,181);fill-rule:nonzero;"/>
    </g>
    <g transform="matrix(1,0,0,1,539.249,789.226)">
        <path d="M0,-39.317C-132.95,5.473 -259.823,48.157 -383.155,16.252L-383.155,101.437C-353.351,107.178 -323.636,109.753 -294.092,109.753C-180.243,109.753 -69.098,72.308 33.643,37.694C202.009,-19.033 348.903,-69.228 497.403,13.739L497.403,-79.421C325.519,-149.07 153.89,-91.168 0,-39.317" style="fill:rgb(217,168,181);fill-rule:nonzero;"/>
    </g>
    <g transform="matrix(1,0,0,1,219.508,463.379)">
        <path d="M0,267.782C12.437,268.609 24.309,266.751 35.599,262.409C51.265,256.334 63.065,246.118 71.203,232.602C79.989,218.115 84.438,202.263 84.438,185.376C84.416,169.092 79.951,155.596 70.981,144.548C67.342,140.025 62.661,135.654 56.872,131.347C51.077,127.028 41.006,120.549 26.696,111.077C17.146,104.794 10.249,99.263 6.077,94.86C-1.169,87.35 -4.797,79.144 -4.786,70.514C-4.814,62.496 -1.961,56.457 3.689,52.214C9.046,48.203 15.966,46.348 24.53,46.437C37.571,46.573 51.742,51.687 67.071,61.554L67.071,11.42C49.698,4.248 32.347,0.467 14.974,-0.085C-8.177,-0.827 -26.441,3.53 -39.731,14.791C-54.777,27.486 -62.323,44.482 -62.301,67.156C-62.301,87.576 -55.725,106.225 -42.546,122.022C-34.718,131.637 -23.151,142.153 -7.816,152.62C4.742,161.298 12.487,166.366 15.19,168.631C23.156,175.348 27.112,182.814 27.134,191.339C27.134,199.977 24.032,206.98 17.794,212.169C11.406,217.342 2.964,219.603 -7.601,218.786C-38.408,216.404 -47.759,203.336 -63.414,190.971L-63.414,240.461C-51.714,259.02 -19.4,266.493 0,267.782" style="fill:rgb(217,168,181);fill-rule:nonzero;"/>
    </g>
    <g transform="matrix(1,0,0,1,412.498,443.976)">
        <path d="M0,259.956L0,47.972C15.412,43.937 30.818,39.537 46.23,34.887L46.23,-13.347C-4.055,1.828 -54.34,14.338 -104.63,20.179C-104.625,36.257 -104.625,52.334 -104.63,68.412C-89.296,66.63 -73.951,64.228 -58.611,61.318L-58.611,273.303C-39.078,269.599 -19.539,265.071 0,259.956" style="fill:rgb(217,168,181);fill-rule:nonzero;"/>
    </g>
    <g transform="matrix(1,0,0,1,541.886,584.153)">
        <path d="M0,-119.553C7.523,-133.896 16.99,-143.005 28.43,-146.852C38.435,-150.215 47.116,-148.358 54.484,-141.274C64.888,-131.13 70.111,-108.552 70.111,-73.606C70.117,-42.72 65.691,-18.914 56.866,-2.142C49.354,12.169 39.853,21.248 28.43,25.094C18.292,28.502 9.661,26.67 2.382,19.571C-8.033,9.477 -13.24,-12.679 -13.246,-46.87C-13.257,-78.515 -8.831,-102.734 0,-119.553M28.43,74.471C43.897,69.259 58.877,60.628 73.369,48.674C86.504,37.643 97.317,25.661 105.716,12.642C123.676,-15.264 132.579,-49.685 132.628,-91.138C132.606,-116.805 129.964,-137.386 124.601,-152.836C117.648,-173.141 105.417,-187.008 87.917,-194.126C69.674,-201.394 49.803,-201.317 28.214,-194.057C12.896,-188.893 -2.061,-180.234 -16.498,-168.173C-29.827,-156.996 -40.613,-144.968 -48.856,-132.02C-66.805,-103.632 -75.724,-68.344 -75.768,-25.753C-75.796,29.249 -60.877,63.063 -31.04,74.74C-12.831,81.841 7.019,81.683 28.43,74.471" style="fill:rgb(217,168,181);fill-rule:nonzero;"/>
    </g>
    <g transform="matrix(1,0,0,1,704.912,588.106)">
        <path d="M0,-235.619L0,24.599C19.533,19.472 39.072,14.931 58.611,11.209L58.611,-112.322C57.874,-125.779 56.883,-136.707 55.57,-145.095C79.884,-97.535 104.198,-48.723 128.507,1.79C146.955,0.438 165.418,0.067 183.872,0.873L183.872,-259.345C163.906,-260.218 143.919,-259.712 123.953,-258.074L123.953,-136.83C124.269,-123.891 125.781,-112.069 128.507,-101.346C104.198,-151.924 79.884,-200.799 55.57,-248.423C37.05,-244.814 18.525,-240.48 0,-235.619" style="fill:rgb(217,168,181);fill-rule:nonzero;"/>
    </g>
    <g transform="matrix(1,0,0,1,984.522,566.343)">
        <path d="M0,-67.938C17.289,-62.803 34.835,-56.188 52.13,-48.217L52.13,9.955C34.79,1.955 17.34,-4.649 0,-9.797L0,-67.938ZM-58.611,25.914C-21.738,30.867 15.257,41.224 52.13,58.237L52.13,143.461C67.774,150.162 83.408,155.324 99.041,158.996C108.381,127.128 117.71,94.757 127.051,61.925C135.465,33.277 140.528,6.059 142.24,-19.211C143.676,3.909 145.127,20.408 146.589,30.286C148.213,40.176 150.949,52.484 155.049,67.127C163.802,100.562 172.56,133.63 181.318,166.366C198.325,165.644 215.327,163.668 232.334,160.7C252.815,70.386 273.29,-21.37 293.771,-114.113C273.29,-108.109 252.815,-103.093 232.334,-99.518C225.249,-63.647 218.152,-27.949 211.062,7.557C205.998,30.93 203.345,56.404 203.034,84.147C201.561,69.549 198.835,53.498 194.78,35.906C184.714,-6.815 174.665,-49.951 164.604,-93.555C149.187,-93.669 133.781,-94.883 118.358,-97.39C109.179,-59.931 99.982,-22.93 90.804,13.57C86.438,30.079 82.771,49.887 79.724,73.092C79.259,68.251 79.015,65.046 78.865,63.476C77.856,46.763 77.164,37.528 76.898,35.782C76.6,30.985 74.948,20.736 71.907,4.954C63.985,-35.628 60.029,-55.819 52.13,-97.059C34.79,-105.058 17.335,-111.973 0,-117.122L0,-173.549C17.34,-168.401 34.668,-161.818 52.014,-153.82L52.13,-201.95C15.252,-218.962 -21.732,-229.35 -58.611,-234.304L-58.611,25.914Z" style="fill:rgb(217,168,181);fill-rule:nonzero;"/>
    </g>
</svg>
