<svg version="1.1" xmlns="http://www.w3.org/2000/svg" width="286.6px" height="286.9px" viewBox="0 0 286.6 286.9">
    <path fill="#C3DAFE" d="M0.7,67.5L0,0l66.1,9.5L63,31.3L40.2,28l29,40.6c8.6-3.2,18-5,27.7-5c40,0,73.2,29.8,78.5,68.3h12.5v-20.3H210
        v20.3h30.1L219,116.7l12.9-17.9l54.7,39.5l-46.9,47.6L224,170.4l16.2-16.4H210v20.3h-22.1V154h-12.5c-5.4,38.5-38.5,68.3-78.5,68.3
        c-11.6,0-22.6-2.5-32.6-7l-11.5,18.8l17.3,10.6l-11.5,18.7l-17.3-10.6l-21,34.1L1.5,275.4l20.9-34.1L5.1,230.7l11.5-18.8l17.3,10.6
        l11.7-19c-17.1-14.6-28-36.3-28-60.5c0-26.1,12.6-49.2,32.1-63.7L22.5,41.2l0.3,26L0.7,67.5z M39.6,143c0,31.6,25.7,57.3,57.3,57.3
        s57.3-25.7,57.3-57.3s-25.7-57.3-57.3-57.3S39.6,111.4,39.6,143z"
    />
</svg>