<svg xmlns="http://www.w3.org/2000/svg" xmlns:xlink="http://www.w3.org/1999/xlink" viewBox="0 0 841.89 595.28"><defs><style>.cls-1{fill:#2d364e;}.cls-2{fill:#64b6e7;}.cls-3{fill:#add3f2;}.cls-4{fill:#f195bc;}.cls-5{fill:#f7c4da;}.cls-11,.cls-13,.cls-16,.cls-18,.cls-27,.cls-29,.cls-31,.cls-37,.cls-39,.cls-40,.cls-49,.cls-51,.cls-52,.cls-6,.cls-62,.cls-7{fill:none;}.cls-6{stroke:#5561aa;}.cls-11,.cls-13,.cls-16,.cls-18,.cls-27,.cls-31,.cls-32,.cls-37,.cls-39,.cls-41,.cls-48,.cls-49,.cls-50,.cls-51,.cls-52,.cls-6,.cls-62,.cls-7,.cls-9{stroke-miterlimit:10;}.cls-32,.cls-7{stroke:#dc1d4b;}.cls-8{fill:url(#linear-gradient);}.cls-39,.cls-40,.cls-41,.cls-42,.cls-9{stroke:#bcbce0;}.cls-9{fill:url(#linear-gradient-2);}.cls-10{fill:#2f2d86;}.cls-11{stroke:#7c72b3;}.cls-12{fill:#5561aa;}.cls-13{stroke:#999cce;}.cls-14{fill:#544b99;}.cls-15{fill:#f2b3b2;}.cls-16{stroke:#646363;}.cls-16,.cls-29{stroke-width:2.83px;}.cls-17,.cls-41,.cls-42{fill:#282522;}.cls-18,.cls-29,.cls-62{stroke:#282522;}.cls-18{stroke-width:0.71px;}.cls-19,.cls-48{fill:#fff;}.cls-20,.cls-32{fill:#dc1d4b;}.cls-21,.cls-50{fill:#eb878b;}.cls-22{fill:#e42614;}.cls-23{fill:url(#linear-gradient-3);}.cls-24{fill:url(#linear-gradient-4);}.cls-25{fill:#f7b497;}.cls-26{fill:url(#linear-gradient-5);}.cls-27{stroke:#f18965;}.cls-28{fill:#f18965;}.cls-29{stroke-linecap:round;}.cls-29,.cls-40,.cls-42{stroke-linejoin:round;}.cls-30{fill:url(#linear-gradient-6);}.cls-31{stroke:#f195bc;}.cls-33{fill:url(#linear-gradient-7);}.cls-34{fill:url(#linear-gradient-8);}.cls-35{fill:url(#linear-gradient-9);}.cls-36{fill:url(#linear-gradient-10);}.cls-37{stroke:#f9dbd9;}.cls-38{fill:#bcbce0;}.cls-43{fill:url(#radial-gradient);}.cls-44{fill:url(#radial-gradient-2);}.cls-45{fill:url(#radial-gradient-3);}.cls-46{fill:url(#radial-gradient-4);}.cls-47{fill:url(#radial-gradient-5);}.cls-48,.cls-49,.cls-50{stroke:#d0d0d0;}.cls-51{stroke:#e5f1fc;}.cls-52{stroke:#add3f2;stroke-dasharray:2.83;}.cls-53{fill:#f9dbd9;}.cls-54{fill:#7c72b3;}.cls-55{fill:url(#linear-gradient-11);}.cls-56{fill:url(#linear-gradient-12);}.cls-57{fill:#9d9d9c;}.cls-58{fill:url(#linear-gradient-13);}.cls-59{fill:url(#linear-gradient-14);}.cls-60{fill:url(#linear-gradient-15);}.cls-61{fill:url(#linear-gradient-16);}.cls-63{fill:url(#linear-gradient-17);}.cls-64{fill:url(#linear-gradient-18);}.cls-65{fill:#a79fce;}</style><linearGradient id="linear-gradient" x1="118.71" y1="441.83" x2="161.46" y2="441.83" gradientUnits="userSpaceOnUse"><stop offset="0.04" stop-color="#2f2d86"/><stop offset="0.28" stop-color="#33338a"/><stop offset="0.61" stop-color="#404496"/><stop offset="0.99" stop-color="#5460a9"/><stop offset="1" stop-color="#5561aa"/></linearGradient><linearGradient id="linear-gradient-2" x1="140.08" y1="441.85" x2="142.76" y2="441.85" gradientUnits="userSpaceOnUse"><stop offset="0.04" stop-color="#2f2d86"/><stop offset="0.28" stop-color="#353382"/><stop offset="0.6" stop-color="#464477"/><stop offset="0.97" stop-color="#616065"/><stop offset="1" stop-color="#646363"/></linearGradient><linearGradient id="linear-gradient-3" x1="250.17" y1="444.1" x2="329.48" y2="424.45" gradientUnits="userSpaceOnUse"><stop offset="0.12" stop-color="#dc1d4b"/><stop offset="0.38" stop-color="#f195bc"/></linearGradient><linearGradient id="linear-gradient-4" x1="158.7" y1="394.26" x2="296.42" y2="418.36" gradientUnits="userSpaceOnUse"><stop offset="0.22" stop-color="#dc1d4b"/><stop offset="0.29" stop-color="#e44d79"/><stop offset="0.35" stop-color="#eb749d"/><stop offset="0.4" stop-color="#ef8cb4"/><stop offset="0.43" stop-color="#f195bc"/></linearGradient><linearGradient id="linear-gradient-5" x1="567.07" y1="246.86" x2="578.93" y2="351.46" gradientUnits="userSpaceOnUse"><stop offset="0.06" stop-color="#f7b497"/><stop offset="0.31" stop-color="#f5a686"/><stop offset="0.7" stop-color="#f18965"/></linearGradient><linearGradient id="linear-gradient-6" x1="196.92" y1="288.43" x2="256.48" y2="234.15" gradientUnits="userSpaceOnUse"><stop offset="0" stop-color="#282522"/><stop offset="0.29" stop-color="#92203a" stop-opacity="0.41"/><stop offset="0.56" stop-color="#dc1d4b" stop-opacity="0"/></linearGradient><linearGradient id="linear-gradient-7" x1="376.5" y1="297.64" x2="376.57" y2="297.65" gradientUnits="userSpaceOnUse"><stop offset="0.18" stop-color="#5561aa"/><stop offset="0.28" stop-color="#5a7cbe"/><stop offset="0.41" stop-color="#5f9cd4"/><stop offset="0.52" stop-color="#63afe2"/><stop offset="0.59" stop-color="#64b6e7"/></linearGradient><linearGradient id="linear-gradient-8" x1="382.79" y1="427.77" x2="410.16" y2="431.44" gradientUnits="userSpaceOnUse"><stop offset="0.39" stop-color="#64b6e7" stop-opacity="0"/><stop offset="0.43" stop-color="#63afe2" stop-opacity="0.08"/><stop offset="0.73" stop-color="#5977ba" stop-opacity="0.74"/><stop offset="0.86" stop-color="#5561aa"/></linearGradient><linearGradient id="linear-gradient-9" x1="359.71" y1="401.13" x2="412.22" y2="402.56" gradientUnits="userSpaceOnUse"><stop offset="0.18" stop-color="#5561aa"/><stop offset="0.31" stop-color="#5b81c1" stop-opacity="0.62"/><stop offset="0.47" stop-color="#61a7dc" stop-opacity="0.18"/><stop offset="0.55" stop-color="#64b6e7" stop-opacity="0"/></linearGradient><linearGradient id="linear-gradient-10" x1="425.88" y1="399.12" x2="518.25" y2="404.77" gradientUnits="userSpaceOnUse"><stop offset="0.19" stop-color="#64b6e7" stop-opacity="0"/><stop offset="0.24" stop-color="#63afe2" stop-opacity="0.08"/><stop offset="0.57" stop-color="#5977ba" stop-opacity="0.74"/><stop offset="0.72" stop-color="#5561aa"/></linearGradient><radialGradient id="radial-gradient" cx="370.19" cy="254.61" r="12.61" gradientTransform="translate(0 -183.54) scale(1 1.72)" gradientUnits="userSpaceOnUse"><stop offset="0" stop-color="#b2b2b2"/><stop offset="0.16" stop-color="#c5c5c5"/><stop offset="0.47" stop-color="#e5e5e5"/><stop offset="0.73" stop-color="#f8f8f8"/><stop offset="0.92" stop-color="#fff"/></radialGradient><radialGradient id="radial-gradient-2" cx="452.04" cy="251.92" r="9.58" gradientTransform="translate(0 -235.91) scale(1 1.94)" xlink:href="#radial-gradient"/><radialGradient id="radial-gradient-3" cx="383.31" cy="290.11" r="28.84" gradientTransform="translate(0 -271.67) scale(1 1.94)" xlink:href="#radial-gradient"/><radialGradient id="radial-gradient-4" cx="418.95" cy="297.83" r="16.97" gradientTransform="translate(0 -278.89) scale(1 1.94)" xlink:href="#radial-gradient"/><radialGradient id="radial-gradient-5" cx="412.95" cy="270.71" r="27.67" gradientTransform="translate(16.19 -312) scale(0.96 2.15)" xlink:href="#radial-gradient"/><linearGradient id="linear-gradient-11" x1="568.7" y1="243.58" x2="624.4" y2="303.92" gradientUnits="userSpaceOnUse"><stop offset="0.49" stop-color="#544b99" stop-opacity="0"/><stop offset="0.61" stop-color="#50478e" stop-opacity="0.09"/><stop offset="0.73" stop-color="#433d6c" stop-opacity="0.38"/><stop offset="0.84" stop-color="#2e2a33" stop-opacity="0.86"/><stop offset="0.87" stop-color="#282522"/></linearGradient><linearGradient id="linear-gradient-12" x1="662.62" y1="223.63" x2="491.35" y2="285.2" gradientUnits="userSpaceOnUse"><stop offset="0.6" stop-color="#544b99" stop-opacity="0"/><stop offset="0.65" stop-color="#4a427d" stop-opacity="0.23"/><stop offset="0.74" stop-color="#2e2a32" stop-opacity="0.87"/><stop offset="0.75" stop-color="#282522"/></linearGradient><linearGradient id="linear-gradient-13" x1="544.58" y1="433.9" x2="592.86" y2="435.33" gradientUnits="userSpaceOnUse"><stop offset="0.23" stop-color="#9d9d9c"/><stop offset="0.31" stop-color="#989896"/><stop offset="0.4" stop-color="#898887"/><stop offset="0.5" stop-color="#6f6e6d"/><stop offset="0.61" stop-color="#4d4b48"/><stop offset="0.7" stop-color="#282522"/></linearGradient><linearGradient id="linear-gradient-14" x1="636.69" y1="424.94" x2="679.1" y2="372.35" gradientUnits="userSpaceOnUse"><stop offset="0.21" stop-color="#9d9d9c"/><stop offset="0.27" stop-color="#989896"/><stop offset="0.35" stop-color="#898887"/><stop offset="0.44" stop-color="#6f6e6d"/><stop offset="0.53" stop-color="#4d4b48"/><stop offset="0.61" stop-color="#282522"/></linearGradient><linearGradient id="linear-gradient-15" x1="567.84" y1="463.84" x2="462.43" y2="398.21" gradientUnits="userSpaceOnUse"><stop offset="0" stop-color="#282522"/><stop offset="0.03" stop-color="#353330" stop-opacity="0.78"/><stop offset="0.13" stop-color="#575655" stop-opacity="0.21"/><stop offset="0.19" stop-color="#646363" stop-opacity="0"/></linearGradient><linearGradient id="linear-gradient-16" x1="560.41" y1="407.66" x2="474.49" y2="385.06" gradientUnits="userSpaceOnUse"><stop offset="0.25" stop-color="#646363" stop-opacity="0"/><stop offset="0.33" stop-color="#565454" stop-opacity="0.24"/><stop offset="0.46" stop-color="#302d2a" stop-opacity="0.87"/><stop offset="0.48" stop-color="#282522"/></linearGradient><linearGradient id="linear-gradient-17" x1="208.72" y1="503.83" x2="204.55" y2="588.29" gradientUnits="userSpaceOnUse"><stop offset="0.19" stop-color="#544b99"/><stop offset="0.65" stop-color="#2f2d86"/></linearGradient><linearGradient id="linear-gradient-18" x1="304.09" y1="513.78" x2="307.17" y2="563.3" xlink:href="#linear-gradient-17"/></defs><g id="Layer_11" data-name="Layer 11"><path class="cls-1" d="M682.89,331.64c-106.09-48.28-49.32-63.53-93.55-110.36C566.89,197.51,528,179.32,485.8,169c-16.95-32.77-51.21-60.82-95.3-73.72-74.08-21.69-147.85,7.57-164.76,65.35-10.71,36.56,3.93,75.78,34.88,105.15a90.94,90.94,0,0,1-11.56,8C191.39,307.49,141,263.44,96.8,298.49c-30.24,24-40.43,71.41-31.18,106.4,16.72,63.27,97.29,87,153.64,103.63,108.65,32,222.23,44.6,347,22.64C694.66,508.53,730,437,736.58,415,747,380.36,714.73,346.12,682.89,331.64Z"/></g><g id="Layer_28" data-name="Layer 28"><path class="cls-2" d="M636.84,49.35c7,17.89,6.54,61.54-11.34,68.56s-46.4-25.28-53.41-43.16a34.78,34.78,0,1,1,64.75-25.4Z"/><polygon class="cls-2" points="624.93 115.84 624.93 126.27 634.66 121.06 624.93 115.84"/><path class="cls-3" d="M616.6,45.33c0,6.21-5,6.65-11.24,6.65s-11.23-.44-11.23-6.65a11.24,11.24,0,1,1,22.47,0Z"/><path class="cls-4" d="M781.88,143.67c-4.17,13.8-24.74,39.3-38.53,35.13s-15.59-36.46-11.42-50.25a26.09,26.09,0,1,1,50,15.12Z"/><polygon class="cls-4" points="743.97 177.31 739.13 183.46 747.28 184.91 743.97 177.31"/><path class="cls-5" d="M771.83,131.9c-2.89,3.65-6.06,1.58-9.71-1.31s-6.42-5.48-3.53-9.13a8.43,8.43,0,1,1,13.24,10.44Z"/><path class="cls-6" d="M627.06,117.19c10.85,1.19,25.07,4.62,32.1,15.59,3.84,6,3.7,11.36,4.59,15.6,2.34,11.21,13.79,19,45,19"/><path class="cls-7" d="M744.82,179.56c14.43,36.46,8.53,47.61,17.56,58.7,6.73,8.26,24.46,13.39,27.82,19.87"/></g><g id="Layer_32" data-name="Layer 32"><path class="cls-8" d="M158.92,461c-4.08-11.61-7.61-21.58-5.42-33.63a30.49,30.49,0,0,0,.51-5.76h0s4.93-12.62-.65-29c-1.53-4.51-6-13-7.64-17.43-1.76-4.93-.48-19.26-5.64-20.18-3.94-.7-5,10.51-5.75,14.45-.94,5.16,1.25,15.16,1,20.4-.21,4.37-5.77,16.52-5.77,16.53a28.59,28.59,0,0,0-2.47,21.23,46.87,46.87,0,0,1-3.82,34.24c-17.1,32.94,19.5,66.74,19.5,66.74s-4.62-21.65,10.3-36.05C163.15,482.85,162.84,472.15,158.92,461Z"/><line class="cls-9" x1="140.08" y1="355.05" x2="142.76" y2="528.64"/><path class="cls-10" d="M120.86,454.41c19.77,24.53,16.25,60.18,16.25,60.18s-35.58-4.13-55.35-28.67S65.5,425.74,65.5,425.74,101.08,429.88,120.86,454.41Z"/><line class="cls-11" x1="65.5" y1="425.74" x2="137.11" y2="514.59"/><path class="cls-12" d="M114.48,491.56C135.22,502.91,143,528.64,143,528.64s-25.86,7.33-46.61-4-28.52-37.08-28.52-37.08S93.73,480.21,114.48,491.56Z"/><line class="cls-13" x1="67.87" y1="487.54" x2="143" y2="528.64"/></g><g id="Layer_16" data-name="Layer 16"><path class="cls-14" d="M308.12,315.38c-2.92.95-6,1.83-9.22,2.65-1.49-3.73-3.64-7.62-4.67-11.51-1.26-4.78-4.75-17.13-5.26-20.36.18,1.58.47,6-.11,15.77-.39,6.47,1.6,12.82,3.7,17.59-32.89,7.14-77.14,7.86-109.53-.3A102.94,102.94,0,0,0,184,306c.15-7.14-.15-14.14-.7-16.72-1.22-5.81.84-13.7,1.69-18.19.25-1.33.76-5.35.76-5.35s-4.55,5.49-5.62,7.6c-3.05,6-2.07,11.16-2.75,17.19a82.63,82.63,0,0,1-1.72,10.06c-1.3,5.57-4.9,10-8.82,13.32a63,63,0,0,1-7.23-4.68c9.86-3.9,9.28-30.25,15.59-42,11.22-20.83,20.73-26.14,33.1-75.12,2.71-10.76,12.91-30.86,22.39-37.7,9.66-7,18.66-9.22,30.08-4.77,2.09.82,8.93,3.87,11.27,10.27,6,16.28,13.87,45.41,13.69,47.09a139.47,139.47,0,0,0,.28,28.64A237.23,237.23,0,0,0,291.71,268,263.24,263.24,0,0,0,308.12,315.38Z"/></g><g id="Layer_27" data-name="Layer 27"><path class="cls-13" d="M237.33,188.07c1.15,9.48-5.64,23.75-9.18,38-2.75,11-20.94,22.12-18.27,33.94a34.2,34.2,0,0,1,1.22,11c-.49,7.61-3.4,8.55-3.66,15-.32,7.73,3.73,9.77,2.75,15.89-.91,5.63-6.72,6-7.65,11.32-.64,3.69,1.25,8,2.71,10.1"/><path class="cls-13" d="M231.77,189.69c.31,6-6.11,17-11.07,25.11-4.63,7.59-8.3,6.79-12.84,14.06-6,9.64-11.31,18.09-6.42,31.8,4.08,11.43-2.82,13.79-5.5,20.17-2.6,6.2,3.95,12.41,2.05,18.58-2.82,9.1-5.1,15.33-2.28,22.46"/></g><g id="Layer_14" data-name="Layer 14"><path class="cls-15" d="M379.1,259.28l-2.55,15.36a29.74,29.74,0,0,1-6.33,2.1c-5.93,1.38-15.79,2.34-28.53-1.18-12.33-3.41-26-12.16-35.47-19a53.29,53.29,0,0,0-8.23-4.67A124.9,124.9,0,0,0,285.75,247l-2,29.07-.76,11.2-.71,10.42-.12,6.79-.06,3-.24,12.74s.61,4-21.1,5.84-45.69-7.11-45.69-7.11V235.66a284.38,284.38,0,0,1-26.2-12.42c-11.09-5.93-23.79-13.68-34-22.51-12.61-10.9-20.16-27.62-24.49-41-.5-1.58-1-3.11-1.39-4.57-.71-2.47-1.3-4.77-1.79-6.83-1.44-6.08-9-11.11-9-11.11s9-21.44,19.11-6.67a13.61,13.61,0,0,1,.93,1.95,7.82,7.82,0,0,0,.77,4.28l3.58,8.41,2.4,5.62,1.8,4.23c13.3,25.76,31.12,36.33,45.41,42,.56.23,1.13.44,1.7.65,17.07,6.34,37,6.77,37,6.77h9.78V190.87h19.41v13.61h3.78a41,41,0,0,1,5.39.55,117.36,117.36,0,0,1,12.39,2.66c10,2.64,26,14.59,38.7,25.13,2.54,2.1,4.95,4.15,7.16,6.05C340.78,250.34,379.1,259.28,379.1,259.28Z"/><rect class="cls-15" x="205.03" y="497.06" width="19.15" height="21.4"/><rect class="cls-15" x="281.85" y="497.06" width="19.15" height="20.4"/><path class="cls-15" d="M111,131.1c.3-4.81,3.9-15.13,6.88-17.12,3.18-2.12,12.92.48,12.7,1.56s2.74-1.71,4.27-.64,4.74,14.83,3.51,17.58-3.47,6.91-3.47,6.91l-7.9,8A73.92,73.92,0,0,1,117,141C112.24,137.37,110.85,133.82,111,131.1Z"/><path class="cls-7" d="M122.8,145s4.21,1.67,7.08.7"/><line class="cls-16" x1="148.16" y1="27.99" x2="118.8" y2="168.64"/><polygon class="cls-15" points="131.73 115.67 126.34 116.5 122.8 137.41 125.85 139.02 127.92 136.6 129.88 133.05 131.73 115.67"/><path class="cls-7" d="M130.6,115.54s-5.25.12-6.15,1.8-3.22,5.81,0,6.58,8.58-.77,8.58-.77"/><line class="cls-7" x1="122.8" y1="119.84" x2="119.73" y2="118.78"/><path class="cls-7" d="M117,124.13s11.62,3.37,12.84,4.53c1.49,1.41,1.53,4.22-.76,4.73s-10.13-3.71-12.42-3.43"/><path class="cls-7" d="M115.91,136s5.84.24,7.74,2,3.12,1.22,4.27-1-3.09-4.49-3.09-4.49"/><line class="cls-7" x1="138.08" y1="132.02" x2="136.84" y2="135.69"/><path class="cls-7" d="M131.73,123.48s1.84,2.13.77,3.87-3.88.64-3.88.64"/><polygon class="cls-17" points="260.06 195.91 260.06 202.99 247.97 200.57 260.06 195.91"/><path class="cls-15" d="M250.37,157.7c-8.83,0-16.29,6.39-18.76,15.17a6.67,6.67,0,0,0-1.85-.26c-4,0-7.32,3.59-7.32,8s3.28,8,7.32,8a6.67,6.67,0,0,0,2.74-.59c3.08,7.46,9.91,12.66,17.87,12.66,10.84,0,19.63-9.63,19.63-21.51S261.21,157.7,250.37,157.7Z"/><path class="cls-18" d="M253.05,181l1,2.56a2,2,0,0,1-1.1,1.94,3.38,3.38,0,0,1-2.41.24"/><ellipse class="cls-15" cx="267.63" cy="180.02" rx="5.85" ry="7.23"/><path class="cls-19" d="M257,188.3c0,1.53-2.41,2.78-5.39,2.78s-5.39-1.25-5.39-2.78Z"/><path class="cls-20" d="M226.74,176.61a4.26,4.26,0,0,1,3.36-.92c2.14.25,2,3.53,2,3.53a5.25,5.25,0,0,0-2.18-2.46A10.68,10.68,0,0,0,226.74,176.61Z"/><path class="cls-17" d="M248,177.65a1.26,1.26,0,0,1-.06.38,5.42,5.42,0,0,0-3.13-.9,5.51,5.51,0,0,0-3.14.89,1.19,1.19,0,0,1-.06-.37c0-1.08,1.43-2,3.2-2S248,176.57,248,177.65Z"/><path class="cls-17" d="M263.25,177.65a1.65,1.65,0,0,1-.05.38,5.46,5.46,0,0,0-3.14-.9,5.53,5.53,0,0,0-3.14.89,1.57,1.57,0,0,1-.05-.37c0-1.08,1.42-2,3.19-2S263.25,176.57,263.25,177.65Z"/><path class="cls-14" d="M258.08,156.17s-7.61,15.66-15.27,16.62a62.7,62.7,0,0,1-14.59,0s6.62-18.61,12.89-19.06S258.08,156.17,258.08,156.17Z"/><path class="cls-14" d="M255.94,157.7s4.35,11.89,9.09,13.87,9.1,4.32,9.1,4.32l-10.7-18.19Z"/></g><g id="Layer_26" data-name="Layer 26"><polygon class="cls-2" points="185.35 97.35 139.01 75.12 141.01 65.59 143.05 55.85 143.09 55.65 145.08 46.12 145.13 45.91 147.16 36.18 148.85 28.11 195.51 50.49 193.76 58.54 191.66 68.24 191.62 68.45 189.55 77.94 189.51 78.15 187.41 87.85 185.35 97.35"/><polygon class="cls-2" points="209.37 118.78 168.01 98.94 178.96 52.47 220.6 72.45 218.49 81.12 216.16 90.71 216.12 90.91 213.85 100.31 213.8 100.51 211.47 110.11 209.37 118.78"/><polygon class="cls-4" points="191.66 68.24 193.76 58.54 147.16 36.18 145.13 45.91 145.08 46.12 191.62 68.45 191.66 68.24"/><polygon class="cls-4" points="189.55 77.94 143.09 55.65 143.05 55.85 141.01 65.59 187.41 87.85 189.51 78.15 189.55 77.94"/><polygon class="cls-19" points="189.55 77.94 191.62 68.45 191.66 68.24 145.13 45.91 145.08 46.12 143.09 55.65 143.05 55.85 189.51 78.15 189.55 77.94"/><polygon class="cls-4" points="216.16 90.71 218.49 81.12 191.71 68.27 188.95 77.66 188.89 77.85 216.12 90.91 216.16 90.71"/><polygon class="cls-4" points="213.85 100.31 186.19 87.04 186.14 87.24 183.37 96.63 211.47 110.11 213.8 100.51 213.85 100.31"/><polygon class="cls-19" points="213.85 100.31 216.12 90.91 216.16 90.71 188.95 77.66 188.89 77.85 186.19 87.04 186.14 87.24 213.8 100.51 213.85 100.31"/><polygon class="cls-12" points="168.01 98.94 183.37 96.63 170.11 90.03 168.01 98.94"/></g><g id="Layer_8" data-name="Layer 8"><rect class="cls-21" x="399.82" y="183.69" width="17.1" height="16.82"/><path class="cls-21" d="M421.64,249H395.1a10.6,10.6,0,0,1-10.56-10.57V204.1c0-5.81,10.7-10.56,16.51-10.56h12.84c5.81,0,18.31,4.75,18.31,10.56v34.36A10.6,10.6,0,0,1,421.64,249Z"/><path class="cls-21" d="M331.61,247s-6.43,14-20.49,17.64-32.41-1.35-32.41-1.35l2,13.7s29.81,4.89,47.24-.69,30.72-17.39,30.72-17.39L331.61,247Z"/><path class="cls-21" d="M482,227.92s1.68,11.18,29.19,19.43c28,8.41,34.09,11.51,34.09,11.51v13s-39.48-4.58-54.11-8.65a220.67,220.67,0,0,1-27.82-10.3l18.65-25"/><polygon class="cls-21" points="397.08 502.77 395.52 514.03 395.49 514.26 394.81 519.17 394.77 519.47 394.23 523.38 394.15 523.97 387.1 523 373.53 521.12 373.8 519.17 373.88 518.57 374.51 514.03 374.63 513.14 376.47 499.92 397.08 502.77"/><polygon class="cls-21" points="476.39 519.17 457.34 522.53 456.57 522.67 456.56 522.61 455.22 515.01 452.53 499.81 472.36 496.32 475.33 513.14 476.39 519.17"/><polygon class="cls-19" points="395.49 514.26 394.81 519.17 394.77 519.47 394.23 523.38 387.1 523 373.53 521.12 373.8 519.17 373.88 518.57 374.51 514.03 374.63 513.14 395.49 514.26"/><polygon class="cls-19" points="476.39 519.17 457.34 522.53 456.56 522.61 455.22 515.01 475.33 513.14 476.39 519.17"/><polygon class="cls-20" points="416.92 186.48 416.92 192.92 409.8 192.09 402.68 188.25 416.92 186.48"/><path class="cls-21" d="M427.86,161h0a20.76,20.76,0,0,0-39,0h0a7.22,7.22,0,1,0,0,14.44h0a20.76,20.76,0,0,0,39,0h0a7.22,7.22,0,1,0,0-14.44Z"/><path class="cls-18" d="M408.66,171.23s-2,2.69-.93,3.58a2.54,2.54,0,0,0,2.07.66"/><path class="cls-17" d="M402.68,166.8a1.24,1.24,0,0,1,0,.33,3.76,3.76,0,0,0-2.39-.78,3.84,3.84,0,0,0-2.39.77,1.75,1.75,0,0,1,0-.32c0-.93,1.09-1.69,2.43-1.69S402.68,165.87,402.68,166.8Z"/><path class="cls-19" d="M414.05,178.2c0,1.54-2.42,2.78-5.39,2.78s-5.39-1.24-5.39-2.78Z"/><path class="cls-17" d="M413.62,166.8a1.24,1.24,0,0,0,0,.33,3.75,3.75,0,0,1,2.38-.78,3.82,3.82,0,0,1,2.39.77,1.17,1.17,0,0,0,0-.32c0-.93-1.08-1.69-2.43-1.69S413.62,165.87,413.62,166.8Z"/><path class="cls-20" d="M389.31,164.54s-2.14-2.07-3.44-.93a6.36,6.36,0,0,0-1.76,2.68,11.47,11.47,0,0,1,2.6-1.93A4.1,4.1,0,0,1,389.31,164.54Z"/><path class="cls-20" d="M427.09,164.54s2.14-2.07,3.44-.93a6.36,6.36,0,0,1,1.76,2.68,11.47,11.47,0,0,0-2.6-1.93A4.1,4.1,0,0,0,427.09,164.54Z"/><circle class="cls-22" cx="386.84" cy="174.81" r="2.12"/><circle class="cls-22" cx="429.21" cy="174.81" r="2.12"/></g><g id="Layer_5" data-name="Layer 5"><path class="cls-4" d="M315.48,498.59H279.26c-1.78-7.47-4-18.58-6.41-30.87l0-.22c-6.65-34.47-14.37-78.18-16.11-77.6-2.41.81-19.52,82.66-29.34,112.13l-24.94-3h0l-8.25-1c-6-13.29-5-117.4,2-143.08a146.63,146.63,0,0,1,18.93-41.13l14.47-.17L282,313.1c3.36,10.19,14.92,40,24.62,80.78C309.9,407.56,319.15,472.74,315.48,498.59Z"/></g><g id="Layer_33" data-name="Layer 33"><path class="cls-23" d="M297,498.59H279.26c-1.78-7.47-4-18.58-6.41-30.87l0-.22c-6.65-34.47-14.37-78.18-16.11-77.6v-7.72l8.55-7.91Z"/><path class="cls-24" d="M254.59,313.42s-15.29,32.47-22.81,45.91C224.72,372,218.23,400.55,217,415c-1.88,21.33-2.35,85.54-2.35,85.54l-16.24-1.92-4.21-.5c-6-13.29-5-117.4,2-143.08a146.63,146.63,0,0,1,18.93-41.13Z"/></g><g id="Layer_19" data-name="Layer 19"><path class="cls-20" d="M601.41,160.34l2.45,18.35s-7.64,13.75-7,16.35a6.47,6.47,0,0,1,0,4l-3.94-5.5Z"/></g><g id="Layer_17" data-name="Layer 17"><rect class="cls-25" x="570.76" y="192.04" width="18.58" height="20.02"/><path class="cls-26" d="M691.15,213.19c0,1.38-28,50.61-41.74,49.53-11.42-.9-24.74-5.68-28.93-7.28l-1.33-.52-.74-.29L608.67,304s1.3,1.84-22.08,11a36.33,36.33,0,0,1-39-7.34l-6-50.34c-.65.37-1.32.73-2,1.06-30.19,15.11-98.34,7.09-98.34,7.09l.39-14.22s-4.59-1.83,17.88.92,51.37-10.09,70.63-27.94c1.14-1,2.28-2,3.43-2.94h0c18.27-14.59,37.15-12.22,37.15-12.22s18.88-3.38,37.91,0c8.4,1.49,14.53,7,20,12.6,6.32,6.48,11.79,13.2,18.88,14.39,12.84,2.15,30-31.57,30-31.57S691.15,211.82,691.15,213.19Z"/><polygon class="cls-25" points="526.07 496.55 520.74 514.74 518.98 520.76 499.33 515.01 501.09 508.99 506.41 490.79 526.07 496.55"/><polygon class="cls-25" points="716.48 431.2 708.29 450.97 708.2 450.93 702.26 448.47 688.52 442.78 696.71 423.01 709.32 428.23 715.26 430.69 716.48 431.2"/><path class="cls-25" d="M677.54,204.48s1.71-20.93,3.82-20.44c3.08.72,2.37,9.1,2.37,9.1s4.38-19.24,6.35-19c2.52.31-1.66,18-1.66,18s6.52-17.72,8.89-17c2.84.82-5.11,18.15-5.11,18.15s8.25-16.91,9.65-13.55c.66,1.6-5.66,15-5.66,15s7.4-9.69,6.42-4.81c-.94,4.69-11.46,23.27-11.46,23.27Z"/><rect class="cls-19" x="506.9" y="504.64" width="6.27" height="20.47" transform="translate(-127.28 859.94) rotate(-73.7)"/><polygon class="cls-19" points="715.26 430.69 708.2 450.93 702.26 448.47 709.32 428.23 715.26 430.69"/><path class="cls-27" d="M683.58,194.73a10.83,10.83,0,0,1,0,6.08l-1,2.75"/><polygon class="cls-28" points="589.34 193.99 589.34 206.43 577.42 201.36 570.76 195.73 589.34 193.99"/><path class="cls-25" d="M600.29,172.09a22.72,22.72,0,1,0-1.73,17.33,9,9,0,0,0,1.38.12,8.73,8.73,0,0,0,.35-17.45Z"/><path class="cls-18" d="M577,180.4s-2,4-.93,5.36,2.07,1,2.07,1"/><path class="cls-19" d="M582.34,189.5c0,1.53-2.41,2.78-5.38,2.78s-5.39-1.25-5.39-2.78Z"/><circle class="cls-17" cx="584.83" cy="177.57" r="1.45"/><path class="cls-29" d="M582.34,172.49s4.1-.2,6.14.91"/><path class="cls-28" d="M603.61,175.36c-2.68-1.92-5,2-5,2s2-1,3.07-1.39C602.15,175.84,603.61,175.36,603.61,175.36Z"/></g><g id="Layer_15" data-name="Layer 15"><path class="cls-20" d="M320.32,232.82l-14.1,23.73-4.58,7.7-12.78-9.33-2.22,39s-12,2.68-20.29,2.89a27.27,27.27,0,0,1-3.84-.13c-5.75-.69-15-2.07-22.42-2.59a64.78,64.78,0,0,0-6.63-.17,25.54,25.54,0,0,0-3.66.45,70,70,0,0,0-14.7,5.06l-2.34-9.81-9.56-40.18-17.43-10.24,1.85-9.39.52-2.63.56-2.88,0-.21.16-.83,5-25.53c17.07,6.34,37,6.77,37,6.77s5.88,10.36,18.19,12.07c10.15,1.42,17.8-8.13,20.17-11.52a117.36,117.36,0,0,1,12.39,2.66C291.61,210.33,307.58,222.28,320.32,232.82Z"/><path class="cls-30" d="M266.35,296.79a27.27,27.27,0,0,1-3.84-.13c-5.75-.69-15-2.07-22.42-2.59a64.78,64.78,0,0,0-6.63-.17,25.54,25.54,0,0,0-3.66.45,70,70,0,0,0-14.7,5.06l-2.34-9.81-9.56-40.18-17.43-10.24,1.85-9.39.52-2.63.56-2.88c11.78,7.79,27,18,31.24,21.3C224.65,249.29,246.36,278.5,266.35,296.79Z"/></g><g id="Layer_18" data-name="Layer 18"><path class="cls-20" d="M602.87,160.49c-.46-8.48-3-4.5-15.37-12.84-13.93-9.38-13.3,4.81-21.29,4.81s-17.57-3.89-17.57-3.89a15.83,15.83,0,0,0,.93,5.74,4.74,4.74,0,0,0,2,2.15h-1.86a43.93,43.93,0,0,1-4.4-4.91s-3.09,5.17,3.67,10.55c4.47,3.55,2.52,3.37,2.52,3.37h-8.94s7.11,9.24,22,11.53,10.55-12.61,17.69-11.46a18.79,18.79,0,0,1,11.2,6.55l3,8.72,3.84-8.72S603.32,169,602.87,160.49Z"/></g><g id="Layer_7" data-name="Layer 7"><line class="cls-7" x1="256.7" y1="389.9" x2="256.7" y2="369.11"/><line class="cls-7" x1="264.88" y1="373.93" x2="256.7" y2="382.18"/><path class="cls-31" d="M288.86,254.92V210.61"/><path class="cls-7" d="M212.65,317.66s25.4,4,47.18,2.27c20.75-1.68,23.34-3.46,23.34-3.46"/><circle class="cls-32" cx="256.06" cy="316.54" r="1.48"/><line class="cls-7" x1="252.17" y1="313.45" x2="252.17" y2="320.37"/><line class="cls-7" x1="273" y1="313.1" x2="273.93" y2="318.45"/><line class="cls-7" x1="229.71" y1="313.71" x2="227.11" y2="319.37"/><path class="cls-31" d="M227.62,204.32c2.52,8,11.38,15.91,22.67,15.91,10.88,0,20-6.58,22.61-14.56"/><path class="cls-7" d="M227.11,319.37s-5.52,17.88-8.78,23.3c-1.81,3-6.11,7.64-12.08,7.18S198,349,198,349"/><line class="cls-7" x1="192.39" y1="490.39" x2="229.62" y2="494.79"/><line class="cls-7" x1="277.89" y1="492.59" x2="316.07" y2="492.59"/><path class="cls-31" d="M203.2,249.42S209,234,209.92,226.64s-.27-24.63-.27-24.63"/></g><g id="Layer_35" data-name="Layer 35"><polygon class="cls-33" points="376.5 297.64 376.55 297.64 376.5 297.65 376.5 297.64"/><path class="cls-2" d="M474.12,502q-1,.42-2,.81l-1.06.4c-1.8.66-3.72,1.29-5.76,1.86l-.73.2c-1.45.4-3,.76-4.52,1.09a34.19,34.19,0,0,1-7,.78L417.67,372.94l-.57-3.69v.35l-.09,4.81L396.79,505.3c-1.09.15-2.24.29-3.47.42l-2.27.22-1.61.13-.77.06a80.69,80.69,0,0,1-9.16.18c-.7,0-1.37-.07-2-.12l-.79-.07-.16,0a9.85,9.85,0,0,1-2.41-.68l2.42-207.78h-.05l.05-.61h73.37l.13.63-.13,0Z"/><path class="cls-34" d="M417.1,361v8.65l-.09,4.81L396.79,505.3c-1.09.15-2.24.29-3.47.42l-2.27.22c-.53.05-6,.36-6.54.4,2.36-13.75,5.88-40.14,5.19-57.73-1-24.77,13.54-75.52,17.31-88.36C410.74,347.58,415.3,355.05,417.1,361Z"/><path class="cls-35" d="M402,297.64,379.51,506.31c-.7,0-1.37-.07-2-.12l-.79-.07-.16,0a9.85,9.85,0,0,1-2.41-.68l2.42-207.78Z"/><path class="cls-36" d="M474.12,502q-1,.42-2,.81l-1.06.4c-1.8.66-3.72,1.29-5.76,1.86L435.81,297h14.11l.13.63-.13,0Z"/></g><g id="Layer_25" data-name="Layer 25"><path class="cls-22" d="M716,430.69l20.6,6L721,489.79s-10.92-.33-8.61-15.42-5.94-24.5-5.94-24.5l6.78-20Z"/><path class="cls-37" d="M718.44,431.41s-.41,9.86,10.87,16.5"/><line class="cls-37" x1="732.81" y1="435.61" x2="717.65" y2="488.86"/><line class="cls-37" x1="710.21" y1="456.18" x2="712.24" y2="450.75"/><line class="cls-37" x1="711.53" y1="459.84" x2="713.5" y2="454.99"/><line class="cls-37" x1="712.55" y1="464.33" x2="714.46" y2="459.52"/><path class="cls-22" d="M518.52,522.67l-6,20.59-53.08-15.53s.34-10.93,15.43-8.61,24.5-5.94,24.5-5.94l20,6.78Z"/><line class="cls-37" x1="513.9" y1="538.45" x2="465.54" y2="524.43"/><path class="cls-37" d="M517.84,525S504.66,523.18,499,536c-.64,1.47-1.19,3.25-1.19,3.25"/><line class="cls-37" x1="494.06" y1="516.43" x2="501.4" y2="520.22"/><line class="cls-37" x1="489.72" y1="518.11" x2="496.93" y2="521.71"/><line class="cls-37" x1="485.02" y1="519.17" x2="491.89" y2="522.52"/></g><g id="Layer_24" data-name="Layer 24"><path class="cls-14" d="M394.78,519.47v24.28h-55.3a9.45,9.45,0,0,1,.11-4.34l0-.12c.85-3.1,3.64-6.88,11.84-8.07l.4-.06a32.1,32.1,0,0,0,21.41-12c.29-.39.43-.61.43-.61h.18l13.95.6,6.94.3Z"/><path class="cls-38" d="M356.83,539.41H339.59c.81-3.12,3.56-7,11.87-8.19Z"/><line class="cls-39" x1="339.62" y1="539.29" x2="394.78" y2="539.29"/><line class="cls-40" x1="370.43" y1="522.36" x2="378.73" y2="522.36"/><line class="cls-40" x1="367.2" y1="525.07" x2="376.32" y2="525.07"/><line class="cls-40" x1="363.34" y1="527.79" x2="373.44" y2="527.79"/><path class="cls-14" d="M455.38,519.47v24.28h55.3a9.45,9.45,0,0,0-.11-4.34c-.81-3.12-3.56-7-11.87-8.19l-.4-.06c-15.13-2-21.84-12.6-21.84-12.6Z"/><path class="cls-38" d="M493.33,539.41h17.24c-.81-3.12-3.56-7-11.87-8.19Z"/><line class="cls-41" x1="510.53" y1="539.29" x2="455.38" y2="539.29"/><line class="cls-42" x1="479.72" y1="522.36" x2="471.43" y2="522.36"/><line class="cls-42" x1="482.96" y1="525.07" x2="473.84" y2="525.07"/><line class="cls-42" x1="486.81" y1="527.79" x2="476.71" y2="527.79"/></g><g id="Layer_10" data-name="Layer 10"><path class="cls-19" d="M478.36,238c-2.79,5.45-8.42,11.37-13.5,16.07s-9.68,8.18-10.28,8.64l-.07.05s.05,3.78.09,8.56v2.22c.05,6.9.07,14.9-.1,16.74-.31,3.36-4.59,7.4-4.59,7.4H376.55s-3.06-1.29-6.12-6.49-1.83-23.84-1.83-23.84l-.39-.22-14.6-8-.17-.1-21.83-12s10.7-12.36,25.68-33.15c13.69-19,21.95-14.71,32.61-16.74l19,39.36,17.6-39.09c7.64,0,15,2.31,18.81,3.17,12.85,2.87,36.69,27.42,36.69,27.42S484.17,226.64,478.36,238Z"/></g><g id="Layer_34" data-name="Layer 34"><polygon class="cls-43" points="368.6 234.8 368.21 267.09 353.61 259.06 353.44 258.96 368.6 234.8"/><path class="cls-44" d="M464.86,254c-5.11,4.72-9.68,8.18-10.28,8.64L454.51,239Z"/><path class="cls-45" d="M395,281.64c-3.16,1-4,1,7.3,11.08,1.11,1,30.84,9.64,30.84,1.38s-8.37-14.53-17.31-9.17-9,4.91-12.42,0S397.12,281,395,281.64Z"/><path class="cls-46" d="M415.76,296a27.55,27.55,0,0,0,9.5-14.19c2.44-9.17,4.36-11.77,5.54-10.09s1,17,1.1,18.5-3.15,4.32-4.52,5.15S415.76,296,415.76,296Z"/><path class="cls-47" d="M407.73,268.55s17.3-15.69,21.2-21.36,5.44-13.32,3-12.3S419.83,250.45,418.3,253,407.73,268.55,407.73,268.55Z"/></g><g id="Layer_13" data-name="Layer 13"><line class="cls-48" x1="368.6" y1="267.31" x2="368.6" y2="251.25"/><path class="cls-48" d="M339.28,237.61s14.49,10,21.9,13.64l7.42,3.67"/><path class="cls-49" d="M389.9,197.06l-8.24,6.35a38.85,38.85,0,0,0,8.24,7l5.3,3.41s-14.37-.61-3.37,10.09,16.54,15.59,16.54,15.59V293.9"/><path class="cls-49" d="M427.13,197.06l8.24,6.35a38.85,38.85,0,0,1-8.24,7l-5.3,3.41s14.37-.61,3.37,10.09-16.54,15.59-16.54,15.59V293.9"/><line class="cls-50" x1="454.51" y1="262.72" x2="454.51" y2="239.03"/><path class="cls-49" d="M478.3,224.23s-8.66,18.65-13.24,22a60.35,60.35,0,0,1-10.55,5.9"/><line class="cls-51" x1="376.12" y1="304.43" x2="450.88" y2="304.43"/><path class="cls-51" d="M437.08,297.6v6.79s3.05,13.38,6.88,17.79a9.61,9.61,0,0,0,9.21,2.93"/><line class="cls-51" x1="386.41" y1="297.64" x2="386.41" y2="304.43"/><line class="cls-51" x1="440.18" y1="297.6" x2="440.18" y2="304.39"/><path class="cls-51" d="M418,297.64V332.2a11.55,11.55,0,0,1-6.55,8.72"/><circle class="cls-51" cx="414.01" cy="300.67" r="1.26"/><line class="cls-52" x1="381.66" y1="505.65" x2="394.78" y2="355.05"/><line class="cls-52" x1="465.54" y1="503.91" x2="440.18" y2="355.05"/><path class="cls-51" d="M389.7,297.6v6.79s-3,13.38-6.88,17.79-6.7,3.15-6.7,3.15"/><line class="cls-51" x1="411.81" y1="304.43" x2="411.76" y2="341.37"/></g><g id="Layer_9" data-name="Layer 9"><path class="cls-53" d="M388.77,161l8.4,2.17,1.14-6.21a7.68,7.68,0,0,0,5.74,6.21c5,1.15,6.42,0,6.42,0l-2.21-2.85h5.88l4.58.48,3.35,4.28,1.47-8.12,4.51,6.29s.48-13.79-2.34-17c-2.6-3-6-7.27-16.62-8-3.19-.21-8.38,2.12-11.23,3.56-2.39,1.2-7.79,6.85-8.49,9.43C388.3,155.25,388.77,161,388.77,161Z"/></g><g id="Layer_21" data-name="Layer 21"><path class="cls-54" d="M628.7,221.66l-10.29,33L608.67,304l-29.93,1.8-31.13,1.87-1-8.69-5-41.65-8-36h0l.88-.69a56.72,56.72,0,0,1,13-7.53A55.91,55.91,0,0,1,557.75,210a51.11,51.11,0,0,1,8.47-1l13.26,18.34,13.35-19.7a101.27,101.27,0,0,1,15.84,1.47c7.73,1.37,13.54,6.11,18.7,11.27C627.82,220.76,628.26,221.21,628.7,221.66Z"/><path class="cls-55" d="M628.7,221.66l-10.29,33L608.67,304l-61.06,3.67-1-8.69c16.46-2.91,36.79-4.09,51.78-30.06,15.74-27.29,21-38.73,29-48.58C627.82,220.76,628.26,221.21,628.7,221.66Z"/><path class="cls-56" d="M578.74,305.79l-31.13,1.87-1-8.69-5-41.65-8-36h0l.88-.69a56.72,56.72,0,0,1,13-7.53A55.91,55.91,0,0,1,557.75,210c.1,15.13,2.73,41,4.07,52.77C563.5,277.46,572.14,298.67,578.74,305.79Z"/></g><g id="Layer_20" data-name="Layer 20"><path class="cls-57" d="M691.15,467.38l-24.77-13s-46.5-17.36-52.58-20.79c-10.18-5.73-28.74-40.05-28.74-40.05-.08.3-3.91,11.58-3.91,11.58l-1.3,3.69L545.62,506.3l-10.42-2.91-10.1-2.82-10.74-3-10-2.8,43.27-187.11,16.71-1L608.67,304s9.71,20.67,13.38,42.65c1.55,9.32,2.88,17.93,3.93,25.05,1.74,11.76,2.72,19.44,2.72,19.44s48.75,21,64.84,29.84a26.22,26.22,0,0,1,4.74,3C702.46,428.12,691.15,467.38,691.15,467.38Z"/><path class="cls-58" d="M585.06,393.57c-.08.3-3.91,11.58-3.91,11.58L545.62,506.3l-10.42-2.91,33.35-141.15Z"/><path class="cls-59" d="M693.54,421c-7.4.1-15.3.17-20.28,0-11-.46-41.73-13.76-44.56-15.8-1.53-1.1-2.32-18.07-2.72-33.45,1.74,11.76,2.72,19.44,2.72,19.44S677.45,412.09,693.54,421Z"/><path class="cls-60" d="M579.85,408.84,545.62,506.3l-10.42-2.91-10.1-2.82,32-89.82S572.93,399.13,579.85,408.84Z"/><polygon class="cls-61" points="564.32 306.66 514.36 497.57 504.34 494.77 547.61 307.66 564.32 306.66"/></g><g id="Layer_22" data-name="Layer 22"><line class="cls-62" x1="546.18" y1="313.84" x2="611.31" y2="310.13"/><path class="cls-62" d="M591.31,305l1.54,6.14a65.63,65.63,0,0,0,8.92,15.07c6.9,8.93,16.53,4.06,16.53,4.06"/><polyline class="cls-62" points="568.55 306.4 568.55 312.56 568.55 362.24 585.06 393.57"/><path class="cls-62" d="M568.55,342.09s6.11.93,6.64-3.55,0-26.56,0-26.56"/><circle class="cls-62" cx="572.23" cy="308.89" r="1.23"/><line class="cls-62" x1="587.38" y1="305.27" x2="588.87" y2="311.4"/><line class="cls-62" x1="551.05" y1="307.45" x2="549.96" y2="313.33"/><path class="cls-62" d="M541.9,332.37s8,.28,9.15-6.14,1.78-12.77,1.78-12.77l1.22-6.25"/></g><g id="Layer_23" data-name="Layer 23"><path class="cls-63" d="M202.85,511.5l-1.67,18.41L192.39,549s-11.49,9.74,5.81,8.22c7.86-.69,14.85-7.87,20.09-16.2a9.64,9.64,0,0,1,.81-1.09l.15,3.13,5.11-.12V511.5Z"/><path class="cls-64" d="M330.55,543.88a12.08,12.08,0,0,0-2.15-9c-1.39-1.78-7.43-1.59-10.86-2.53-15.5-4.29-12-14.37-12-14.37l-.76-7.88H281.08v33.49h7.4l0-6.33c4-.45,8.12,6.59,8.12,6.59Z"/></g><g id="Layer_29" data-name="Layer 29"><polygon class="cls-65" points="437.72 54.11 432.17 53.87 444.34 41.07 446.81 42.88 437.72 54.11"/><polygon class="cls-20" points="461.66 116.83 457.05 119.93 459.26 102.4 462.32 102.4 461.66 116.83"/><polygon class="cls-28" points="724.2 248.21 717.98 251.3 720.96 233.78 725.09 233.78 724.2 248.21"/><polygon class="cls-10" points="506.33 62.77 501.52 60.02 499.91 51.13 506.33 51.13 506.33 62.77"/><polygon class="cls-19" points="493.75 200.17 491.12 195.29 494.46 186.9 499.91 190.3 493.75 200.17"/><polygon class="cls-22" points="369.38 124.67 364.46 123.31 359.87 114.78 365.08 112.88 369.38 124.67"/><polygon class="cls-14" points="322.53 158.18 318.69 154.19 319.64 145.21 325.8 147.01 322.53 158.18"/><polygon class="cls-28" points="353.91 184.89 351.02 187.47 349.89 178.7 352.13 177.96 353.91 184.89"/><polygon class="cls-2" points="395.43 77.08 392.57 75.03 390.63 67.38 393.98 66.9 395.43 77.08"/><polygon class="cls-4" points="270.61 58.41 265.98 55.79 262.38 40.18 267.63 41.07 270.61 58.41"/><polygon class="cls-19" points="292.53 124.21 286.98 123.97 299.15 111.17 301.62 112.98 292.53 124.21"/><polygon class="cls-65" points="208.38 152.18 205.64 155.45 203.25 143.04 205.54 142.26 208.38 152.18"/><polygon class="cls-2" points="506.33 146.3 502.29 144.59 500.01 137.54 504.98 136.83 506.33 146.3"/><polygon class="cls-4" points="546.08 116.2 543.96 111.72 548.62 101.72 551.99 105.79 546.08 116.2"/></g></svg>